<svg width="1.75rem" height="1.75rem" viewBox="0 0 10 10" fill="none" xmlns="http://www.w3.org/2000/svg">
<path fill-rule="evenodd" clip-rule="evenodd" d="M10.0011 4.9758C10.0011 5.14156 9.93527 5.30053 9.81806 5.41774C9.70085 5.53495 9.54188 5.6008 9.37612 5.6008H2.13487L4.81862 8.2833C4.87673 8.3414 4.92282 8.41039 4.95427 8.48632C4.98572 8.56224 5.00191 8.64362 5.00191 8.72579C5.00191 8.80797 4.98572 8.88935 4.95427 8.96527C4.92282 9.0412 4.87673 9.11019 4.81862 9.16829C4.76051 9.22641 4.69152 9.2725 4.6156 9.30395C4.53967 9.3354 4.4583 9.35158 4.37612 9.35158C4.29394 9.35158 4.21256 9.3354 4.13664 9.30395C4.06071 9.2725 3.99173 9.22641 3.93362 9.16829L0.183617 5.4183C0.125413 5.36024 0.0792344 5.29127 0.0477263 5.21534C0.0162183 5.13941 0 5.058 0 4.9758C0 4.89359 0.0162183 4.81218 0.0477263 4.73625C0.0792344 4.66032 0.125413 4.59135 0.183617 4.5333L3.93362 0.783296C4.05098 0.665937 4.21015 0.600006 4.37612 0.600006C4.54209 0.600006 4.70126 0.665937 4.81862 0.783296C4.93598 0.900654 5.00191 1.05983 5.00191 1.2258C5.00191 1.39177 4.93598 1.55094 4.81862 1.6683L2.13487 4.3508H9.37612C9.54188 4.3508 9.70085 4.41664 9.81806 4.53385C9.93527 4.65106 10.0011 4.81004 10.0011 4.9758Z" fill="black"/>
</svg>
