<svg width="10" height="11" viewBox="0 0 10 10" fill="none" xmlns="http://www.w3.org/2000/svg">
<path fill-rule="evenodd" clip-rule="evenodd" d="M4.99945 10.0248C4.83369 10.0248 4.67472 9.95895 4.55751 9.84174C4.4403 9.72453 4.37445 9.56556 4.37445 9.3998L4.37445 2.15855L1.69196 4.8423C1.63385 4.90041 1.56486 4.9465 1.48893 4.97795C1.41301 5.0094 1.33164 5.02559 1.24946 5.02559C1.16728 5.02559 1.0859 5.0094 1.00998 4.97795C0.934051 4.9465 0.865065 4.90041 0.806955 4.8423C0.748845 4.78419 0.70275 4.7152 0.671301 4.63928C0.639852 4.56335 0.623666 4.48198 0.623666 4.3998C0.623666 4.31762 0.639852 4.23624 0.671301 4.16032C0.70275 4.0844 0.748845 4.01541 0.806955 3.9573L4.55695 0.207299C4.61501 0.149095 4.68398 0.102916 4.75991 0.071408C4.83584 0.0398999 4.91725 0.0236816 4.99945 0.0236816C5.08166 0.0236816 5.16307 0.0398999 5.239 0.071408C5.31493 0.102916 5.3839 0.149095 5.44195 0.207299L9.19195 3.9573C9.30931 4.07466 9.37524 4.23383 9.37524 4.3998C9.37524 4.56577 9.30931 4.72494 9.19195 4.8423C9.0746 4.95966 8.91542 5.02559 8.74945 5.02559C8.58348 5.02559 8.42431 4.95966 8.30695 4.8423L5.62445 2.15855L5.62445 9.3998C5.62445 9.56556 5.55861 9.72453 5.4414 9.84174C5.32419 9.95895 5.16522 10.0248 4.99945 10.0248Z" fill="black"/>
</svg>
