<svg width="9" height="12" viewBox="0 0 9 12" fill="none" xmlns="http://www.w3.org/2000/svg">
<g clip-path="url(#clip0_37_272)">
<path d="M5.25 3V0H1.125C0.503672 0 0 0.503672 0 1.125V10.875C0 11.4961 0.503672 12 1.125 12H7.875C8.49633 12 9 11.4963 9 10.875V3.75H6.02109C5.58516 3.75 5.25 3.41484 5.25 3ZM4.125 9.46875C4.125 9.7207 3.82312 9.84328 3.64453 9.66759L2.8125 8.8125H1.78125C1.62609 8.8125 1.5 8.68594 1.5 8.53125V7.21875C1.5 7.06406 1.62609 6.9375 1.78125 6.9375H2.8125L3.64453 6.08203C3.82266 5.90391 4.125 6.03047 4.125 6.28125V9.46875ZM5.25 9.08906C5.14709 9.08906 5.04492 9.04605 4.97086 8.96327C4.83244 8.80873 4.84526 8.5721 4.99943 8.43382C5.16094 8.28984 5.25 8.09062 5.25 7.875C5.25 7.65938 5.16101 7.46039 4.99945 7.31531C4.84528 7.17689 4.83246 6.94031 4.97088 6.78586C5.10968 6.63131 5.34705 6.61959 5.50034 6.75729C5.81719 7.04297 6 7.44844 6 7.875C6 8.30156 5.81798 8.70773 5.50055 8.99273C5.42812 9.05625 5.33906 9.08906 5.25 9.08906ZM7.5 7.875C7.5 8.85492 7.01953 9.77602 6.21469 10.3383C6.15182 10.3821 6.07701 10.4057 6.00035 10.4057C5.88206 10.4057 5.76527 10.35 5.69238 10.2453C5.57409 10.0753 5.61548 9.84166 5.78541 9.72307C6.38906 9.30234 6.75 8.61094 6.75 7.875C6.75 7.13906 6.38953 6.44906 5.78578 6.02813C5.61586 5.90948 5.57421 5.67586 5.6925 5.50594C5.81079 5.33529 6.04383 5.29355 6.21445 5.41291C7.01953 5.97422 7.5 6.89531 7.5 7.875ZM6 0V3H9L6 0Z" fill="black"/>
</g>
<defs>
<clipPath id="clip0_37_272">
<rect width="9" height="12" fill="white"/>
</clipPath>
</defs>
</svg>
