<svg width="17" height="19" viewBox="0 0 17 19" fill="none" xmlns="http://www.w3.org/2000/svg">
<path d="M8.49998 3.95832C7.62123 3.95832 6.91665 4.66291 6.91665 5.54166C6.91665 6.42041 7.62123 7.12499 8.49998 7.12499C9.37873 7.12499 10.0833 6.42041 10.0833 5.54166C10.0833 4.66291 9.37873 3.95832 8.49998 3.95832ZM16.4166 0.791656V4.74999H14.8333V3.16666H2.16665V4.74999H0.583313V0.791656H2.16665V2.37499H14.8333V0.791656H16.4166ZM10.875 8.91416V18.2083H9.29165V14.25H7.70831V18.2083H6.12498V8.91416C4.48623 8.05124 3.35415 6.33332 3.35415 4.35416V3.95832H4.93748V4.35416C4.93748 6.33332 6.52081 7.91666 8.49998 7.91666C10.4791 7.91666 12.0625 6.33332 12.0625 4.35416V3.95832H13.6458V4.35416C13.6458 6.33332 12.5137 8.05124 10.875 8.91416Z" fill="black"/>
</svg>
