<svg width="26" height="28" viewBox="0 0 26 28" fill="none" xmlns="http://www.w3.org/2000/svg">
<path d="M13 14C16.4518 14 19.25 11.2018 19.25 7.75C19.25 4.29822 16.4518 1.5 13 1.5C9.54822 1.5 6.75 4.29822 6.75 7.75C6.75 11.2018 9.54822 14 13 14Z" stroke="black" stroke-width="2.5"/>
<path d="M19.25 16.5H19.69C20.6039 16.5003 21.4862 16.8342 22.1712 17.4391C22.8562 18.044 23.2967 18.8782 23.41 19.785L23.8988 23.69C23.9427 24.0418 23.9114 24.3989 23.8068 24.7376C23.7022 25.0764 23.5267 25.389 23.292 25.6547C23.0574 25.9205 22.7689 26.1333 22.4457 26.279C22.1225 26.4248 21.772 26.5001 21.4175 26.5H4.58251C4.22799 26.5001 3.87751 26.4248 3.55432 26.279C3.23114 26.1333 2.94264 25.9205 2.70798 25.6547C2.47333 25.389 2.29787 25.0764 2.19327 24.7376C2.08867 24.3989 2.0573 24.0418 2.10126 23.69L2.58876 19.785C2.70214 18.8778 3.14303 18.0432 3.82855 17.4383C4.51407 16.8333 5.39699 16.4996 6.31127 16.5H6.75001" stroke="black" stroke-width="2.5" stroke-linecap="round" stroke-linejoin="round"/>
</svg>
