<svg width="10" height="12" viewBox="0 0 10 12" fill="none" xmlns="http://www.w3.org/2000/svg">
<path d="M6.89581 2.79163C7.2439 2.79163 7.57774 2.65334 7.82388 2.4072C8.07003 2.16106 8.20831 1.82722 8.20831 1.47913C8.20831 1.13103 8.07003 0.79719 7.82388 0.551048C7.57774 0.304907 7.2439 0.166626 6.89581 0.166626C6.54771 0.166626 6.21387 0.304907 5.96773 0.551048C5.72159 0.79719 5.58331 1.13103 5.58331 1.47913C5.58331 1.82722 5.72159 2.16106 5.96773 2.4072C6.21387 2.65334 6.54771 2.79163 6.89581 2.79163ZM4.25914 4.04054C3.89543 4.13096 3.64722 4.26688 3.44685 4.43546C3.14643 4.68863 2.90377 5.05379 2.57593 5.62779C2.49916 5.76212 2.37217 5.86044 2.2229 5.90114C2.07363 5.94184 1.9143 5.92157 1.77998 5.84479C1.64565 5.76802 1.54732 5.64103 1.50663 5.49176C1.46593 5.34248 1.4862 5.18316 1.56298 5.04883C1.88935 4.47804 2.21923 3.944 2.69552 3.54325C3.19252 3.12442 3.80093 2.88758 4.62139 2.79629C4.96439 2.75838 5.34181 2.76596 5.6956 2.92375C6.06689 3.08971 6.33814 3.38692 6.52306 3.78417C6.77214 4.31879 6.95735 4.637 7.10552 4.82133C7.17697 4.91 7.22685 4.95113 7.25514 4.9695C7.2776 4.98408 7.28722 4.98525 7.29072 4.98583H7.29102C7.31639 4.98875 7.39864 4.98583 7.64014 4.87879C7.74543 4.83213 7.86035 4.77613 8.00093 4.70758L8.03447 4.69125C8.2064 4.60641 8.37988 4.52473 8.55481 4.44625C8.69603 4.38425 8.85607 4.38071 8.9999 4.43639C9.14373 4.49208 9.25966 4.60246 9.32232 4.7434C9.38498 4.88433 9.38927 5.04435 9.33426 5.18844C9.27925 5.33253 9.16941 5.44897 9.02876 5.51229C8.86667 5.58505 8.70593 5.6608 8.54664 5.7395L8.50843 5.75817C8.37397 5.82379 8.23864 5.89 8.11176 5.946C7.84926 6.06208 7.51385 6.18808 7.15014 6.14404C6.76631 6.09737 6.47056 5.88067 6.22702 5.58988L5.42989 7.12783L6.53239 8.56225C6.59802 8.648 6.63856 8.75008 6.64993 8.85742L6.8926 11.1896C6.90184 11.2664 6.89571 11.3443 6.87455 11.4188C6.85338 11.4932 6.81762 11.5627 6.76934 11.6232C6.72106 11.6837 6.66122 11.7339 6.59332 11.7711C6.52541 11.8082 6.4508 11.8315 6.37383 11.8395C6.29685 11.8475 6.21905 11.8401 6.14495 11.8177C6.07086 11.7954 6.00196 11.7585 5.94225 11.7093C5.88255 11.66 5.83325 11.5994 5.79721 11.5309C5.76117 11.4624 5.73912 11.3874 5.73235 11.3103L5.5066 9.14237L4.83693 8.27087L4.8311 8.28167L4.8066 8.2315L3.56935 6.6215C3.50853 6.54237 3.46903 6.44895 3.45463 6.35019C3.44023 6.25143 3.45141 6.15062 3.4871 6.05742L4.25914 4.04054Z" fill="black"/>
<path d="M3.37595 7.46033L2.94661 8.61533L1.25495 8.48116C1.17804 8.47402 1.10047 8.48222 1.02676 8.5053C0.953039 8.52837 0.88464 8.56586 0.825526 8.61558C0.766413 8.6653 0.717763 8.72626 0.6824 8.79493C0.647036 8.86361 0.625664 8.93862 0.619522 9.01562C0.613381 9.09261 0.622593 9.17007 0.646624 9.24348C0.670655 9.31689 0.709026 9.38479 0.759511 9.44325C0.809996 9.50171 0.871589 9.54957 0.940716 9.58403C1.00984 9.6185 1.08513 9.6389 1.1622 9.64404L3.2937 9.8132C3.4202 9.82327 3.54653 9.79181 3.65354 9.72359C3.76054 9.65538 3.84239 9.55413 3.88666 9.4352L4.21478 8.55204L3.37595 7.46033Z" fill="black"/>
</svg>
