<svg width="14" height="11" viewBox="0 0 14 11" fill="none" xmlns="http://www.w3.org/2000/svg">
<path d="M6.45202 10.046C6.51318 10.1348 6.59502 10.2075 6.69048 10.2576C6.78594 10.3078 6.89217 10.334 7.00002 10.334C7.10787 10.334 7.2141 10.3078 7.30956 10.2576C7.40502 10.2075 7.48686 10.1348 7.54802 10.046L13.548 1.37933C13.6175 1.27937 13.6582 1.16229 13.6658 1.0408C13.6734 0.919319 13.6475 0.798081 13.591 0.690261C13.5345 0.582442 13.4496 0.492164 13.3454 0.429238C13.2412 0.366311 13.1217 0.333141 13 0.333333H1.00002C0.878581 0.333834 0.759578 0.367431 0.655806 0.430508C0.552034 0.493586 0.467421 0.583758 0.411065 0.691328C0.354709 0.798898 0.328742 0.919796 0.335958 1.04102C0.343174 1.16224 0.383299 1.27921 0.452019 1.37933L6.45202 10.046Z" fill="black"/>
</svg>
