<svg width="17" height="17" viewBox="0 0 17 17" fill="none" xmlns="http://www.w3.org/2000/svg">
<path d="M14.7842 9.29168C14.608 10.6869 13.9727 11.9839 12.9783 12.9783C11.9838 13.9727 10.6869 14.608 9.29165 14.7843V16.4167H7.70831V14.7843C6.31309 14.608 5.01612 13.9727 4.02171 12.9783C3.02729 11.9839 2.39194 10.6869 2.21573 9.29168H0.583313V7.70834H2.21573C2.39194 6.31312 3.02729 5.01615 4.02171 4.02174C5.01612 3.02733 6.31309 2.39197 7.70831 2.21576V0.583344H9.29165V2.21576C10.6869 2.39197 11.9838 3.02733 12.9783 4.02174C13.9727 5.01615 14.608 6.31312 14.7842 7.70834H16.4166V9.29168H14.7842ZM8.49998 13.25C9.75976 13.25 10.9679 12.7496 11.8587 11.8588C12.7495 10.968 13.25 9.75979 13.25 8.50001C13.25 7.24023 12.7495 6.03205 11.8587 5.14125C10.9679 4.25046 9.75976 3.75001 8.49998 3.75001C7.2402 3.75001 6.03202 4.25046 5.14122 5.14125C4.25042 6.03205 3.74998 7.24023 3.74998 8.50001C3.74998 9.75979 4.25042 10.968 5.14122 11.8588C6.03202 12.7496 7.2402 13.25 8.49998 13.25ZM8.49998 10.875C9.12987 10.875 9.73396 10.6248 10.1794 10.1794C10.6248 9.73399 10.875 9.1299 10.875 8.50001C10.875 7.87012 10.6248 7.26603 10.1794 6.82063C9.73396 6.37523 9.12987 6.12501 8.49998 6.12501C7.87009 6.12501 7.266 6.37523 6.8206 6.82063C6.3752 7.26603 6.12498 7.87012 6.12498 8.50001C6.12498 9.1299 6.3752 9.73399 6.8206 10.1794C7.266 10.6248 7.87009 10.875 8.49998 10.875Z" fill="black"/>
</svg>
