<svg width="1.75rem" height="1.75rem" viewBox="0 0 10 10" fill="none" xmlns="http://www.w3.org/2000/svg">
<path fill-rule="evenodd" clip-rule="evenodd" d="M-0.00111675 5.0242C-0.00111675 4.85844 0.0647308 4.69947 0.181941 4.58226C0.299151 4.46505 0.458123 4.3992 0.623883 4.3992L7.86513 4.3992L5.18138 1.7167C5.12327 1.65859 5.07718 1.58961 5.04573 1.51368C5.01428 1.43776 4.99809 1.35639 4.99809 1.27421C4.99809 1.19203 5.01428 1.11065 5.04573 1.03473C5.07718 0.958801 5.12327 0.889815 5.18138 0.831705C5.23949 0.773595 5.30848 0.7275 5.3844 0.696051C5.46033 0.664602 5.5417 0.648416 5.62388 0.648416C5.70606 0.648416 5.78744 0.664602 5.86336 0.696051C5.93929 0.7275 6.00827 0.773595 6.06638 0.831705L9.81638 4.5817C9.87459 4.63976 9.92077 4.70873 9.95227 4.78466C9.98378 4.86059 10 4.942 10 5.0242C10 5.10641 9.98378 5.18782 9.95227 5.26375C9.92077 5.33968 9.87459 5.40865 9.81638 5.4667L6.06638 9.2167C5.94902 9.33406 5.78985 9.39999 5.62388 9.39999C5.45791 9.39999 5.29874 9.33406 5.18138 9.2167C5.06402 9.09935 4.99809 8.94017 4.99809 8.7742C4.99809 8.60823 5.06402 8.44906 5.18138 8.3317L7.86513 5.6492L0.623883 5.6492C0.458123 5.6492 0.299151 5.58336 0.181941 5.46615C0.0647308 5.34894 -0.00111675 5.18997 -0.00111675 5.0242Z" fill="black"/>
</svg>
