<svg width="13" height="17" viewBox="0 0 13 17" fill="none" xmlns="http://www.w3.org/2000/svg">
<path d="M8.08335 0.583344H1.75002C0.879187 0.583344 0.166687 1.29584 0.166687 2.16668V14.8333C0.166687 15.7042 0.879187 16.4167 1.75002 16.4167H11.25C12.1209 16.4167 12.8334 15.7042 12.8334 14.8333V5.33334L8.08335 0.583344ZM1.75002 14.8333V2.16668H7.29169V6.12501H11.25V14.8333H1.75002ZM9.66669 7.70834H6.50002V10.78C6.23204 10.6 5.92013 10.4963 5.59771 10.48C5.27529 10.4637 4.95452 10.5355 4.66978 10.6877C4.38504 10.8398 4.14707 11.0665 3.98137 11.3436C3.81567 11.6207 3.7285 11.9376 3.72919 12.2604C3.72919 13.2421 4.52877 14.0417 5.51044 14.0417C6.4921 14.0417 7.29169 13.2421 7.29169 12.2604V9.29168H9.66669V7.70834Z" fill="black"/>
</svg>
