<svg width="20" height="20" viewBox="0 0 20 20" fill="none" xmlns="http://www.w3.org/2000/svg">
<path d="M9.23715 0.96543C9.45814 0.802538 9.72547 0.714661 10 0.714661C10.2745 0.714661 10.5419 0.802538 10.7629 0.96543L18.9031 6.96972C19.8666 7.68114 19.4157 9.17943 18.2689 9.284H1.73115C0.584289 9.17943 0.134289 7.68114 1.09686 6.96972L9.238 0.96543H9.23715ZM10 6.71343C10.341 6.71343 10.668 6.57797 10.9091 6.33685C11.1503 6.09573 11.2857 5.76871 11.2857 5.42772C11.2857 5.08672 11.1503 4.7597 10.9091 4.51858C10.668 4.27746 10.341 4.142 10 4.142C9.65901 4.142 9.33198 4.27746 9.09087 4.51858C8.84975 4.7597 8.71429 5.08672 8.71429 5.42772C8.71429 5.76871 8.84975 6.09573 9.09087 6.33685C9.33198 6.57797 9.65901 6.71343 10 6.71343V6.71343ZM14.7143 10.142H16.8563V15.2849H14.7134V10.142H14.7143ZM13 15.2849V10.142H10.8571V15.2849H13ZM9.14286 15.2857V10.1429H7V15.2857H9.14286ZM5.28657 15.2857V10.1429H3.14372V15.2857H5.28657ZM3.358 16.1429C2.61919 16.1429 1.91063 16.4364 1.38821 16.9588C0.865783 17.4812 0.572289 18.1898 0.572289 18.9286V19.3571C0.572515 19.5276 0.64029 19.6911 0.760775 19.8118C0.881261 19.9324 1.04464 20.0004 1.21515 20.0009H18.784C18.9545 20.0009 19.118 19.9331 19.2386 19.8126C19.3591 19.692 19.4269 19.5285 19.4269 19.358V18.9294C19.4269 18.1906 19.1334 17.4821 18.6109 16.9596C18.0885 16.4372 17.38 16.1437 16.6411 16.1437H3.35886L3.358 16.1429Z" fill="black"/>
</svg>
