<svg width="21" height="17" viewBox="0 0 21 17" fill="none" xmlns="http://www.w3.org/2000/svg">
<path fill-rule="evenodd" clip-rule="evenodd" d="M17.8001 0.146206C18.026 0.0101871 18.2957 -0.033082 18.5528 0.025477C18.8098 0.0840361 19.0342 0.239872 19.1788 0.46029L20.1884 2.00012C20.3203 2.20137 20.3768 2.44277 20.3478 2.68163C20.3189 2.9205 20.2064 3.14144 20.0303 3.3054L20.0273 3.30948L20.013 3.32273L19.9549 3.37678L19.7254 3.59603C18.4558 4.82748 17.2247 6.09802 16.0339 7.40582C13.7935 9.86954 11.133 13.094 9.34232 16.2226C8.84264 17.0955 7.622 17.2831 6.89797 16.5295L0.28488 9.65846C0.19011 9.55995 0.116111 9.4434 0.067282 9.31572C0.018453 9.18805 -0.00420906 9.05186 0.000642557 8.91525C0.00549417 8.77865 0.0377605 8.64441 0.0955237 8.52052C0.153287 8.39664 0.235368 8.28562 0.336888 8.19409L2.3356 6.39117C2.51125 6.23281 2.73647 6.14043 2.97272 6.12982C3.20897 6.11922 3.44156 6.19106 3.63069 6.33304L7.00505 8.86305C12.2751 3.66537 15.265 1.67074 17.8001 0.146206Z" fill="#99B83C"/>
</svg>
