<svg width="40" height="40" viewBox="0 0 40 40" fill="none" xmlns="http://www.w3.org/2000/svg">
<circle cx="20" cy="20" r="20" fill="#FA0000"/>
<circle cx="20" cy="20" r="17" fill="#FA0000" stroke="black" stroke-width="2"/>
<path d="M15.6305 10.0308C14.7081 12.8616 14.8052 15.9846 15.8732 17.7078C16.3911 18.5384 17.3783 19.3847 18.1389 19.6155C19.4012 20.0155 19.3526 19.8307 19.3526 24.9693V29.5692L17.9448 29.7385C16.294 29.9231 15.6305 30.1385 15.6305 30.4462C15.6305 30.8615 16.7633 31 19.9838 31C23.1558 31 24.3695 30.8462 24.3695 30.4308C24.3695 30.1385 23.6898 29.9231 22.0714 29.7385L20.6474 29.5692V24.9693C20.6474 19.8307 20.5988 20.0155 21.8611 19.6155C22.6217 19.3847 23.6089 18.5384 24.1268 17.7078C25.1948 15.9846 25.2919 12.8616 24.3695 10.0308L24.0297 9H22.8645H21.683L21.1814 10.5385C20.9225 11.3846 20.7282 12.077 20.7606 12.077C20.793 12.077 21.1005 11.9385 21.4565 11.7693C21.8125 11.6 22.12 11.4616 22.1524 11.4616C22.2333 11.4616 21.3432 15.4615 21.2299 15.5692C21.1815 15.6154 21.1815 14.954 21.2461 14.0923C21.2947 13.2462 21.2947 12.5385 21.2299 12.5385C21.1652 12.5385 20.7768 12.7539 20.3884 13.0154C19.6764 13.4769 19.6602 13.4769 19.7573 13.1231C20 12.1077 20.6474 9.24621 20.6474 9.12311C20.6474 9.06162 19.5954 9 18.3008 9H15.9703L15.6305 10.0308Z" fill="#2B0D05"/>
</svg>
