<svg width="13" height="31" viewBox="0 0 13 31" fill="none" xmlns="http://www.w3.org/2000/svg">
<path d="M0.817361 2.07234C-0.378443 5.93248 -0.252569 10.1912 1.13205 12.5409C1.80338 13.6737 3.0831 14.8276 4.06911 15.1423C5.70547 15.6877 5.64254 15.436 5.64254 22.443V28.7157L3.81736 28.9465C1.6775 29.1982 0.817361 29.4919 0.817361 29.9115C0.817361 30.4779 2.28589 30.6667 6.46072 30.6667C10.5726 30.6667 12.146 30.457 12.146 29.8905C12.146 29.4919 11.2649 29.1982 9.16701 28.9465L7.32086 28.7157V22.443C7.32086 15.436 7.25792 15.6877 8.89428 15.1423C9.8803 14.8276 11.16 13.6737 11.8313 12.5409C13.216 10.1912 13.3418 5.93248 12.146 2.07234L11.7055 0.666748H10.195H8.66352L8.01317 2.76465C7.6775 3.9185 7.42575 4.86255 7.46771 4.86255C7.50967 4.86255 7.90827 4.67374 8.36981 4.44297C8.83135 4.2122 9.22995 4.02339 9.27191 4.02339C9.3768 4.02339 8.22296 9.47794 8.0761 9.62479C8.01317 9.68773 8.01317 8.78563 8.09708 7.6108C8.16002 6.45696 8.16002 5.49192 8.0761 5.49192C7.99219 5.49192 7.48869 5.78563 6.98519 6.14227C6.06212 6.77164 6.04114 6.77164 6.16701 6.28913C6.4817 4.90451 7.32086 1.00241 7.32086 0.834581C7.32086 0.750664 5.95722 0.666748 4.2789 0.666748H1.25792L0.817361 2.07234Z" fill="#AF7309"/>
</svg>
