<svg width="30" height="30" viewBox="0 0 30 30" fill="none" xmlns="http://www.w3.org/2000/svg">
<g clip-path="url(#clip0_4_74)">
<path d="M9.11994 2.00822L8.35946 21.7777C7.33609 21.2525 6.05216 21.0253 4.70499 21.2164C1.80016 21.6278 -0.291513 23.8191 0.0332365 26.1102C0.358037 28.4013 2.97609 29.9248 5.88079 29.5133C8.45876 29.1479 10.3939 27.3807 10.5697 25.3864L10.5703 25.3875C10.5707 25.383 10.5709 25.3762 10.5713 25.3711C10.5756 25.3205 10.5781 25.2691 10.58 25.2182C10.6881 23.159 11.3503 7.5175 11.3503 7.5175L27.6607 5.83702L26.9241 19.924C25.8774 19.3414 24.5321 19.0819 23.1175 19.2824C20.2127 19.6942 18.1211 21.885 18.4459 24.1763C18.7705 26.4673 21.3886 27.991 24.2934 27.579C26.9262 27.2064 28.8878 25.371 28.9908 23.3247L28.992 23.3235C29.0472 22.4039 29.9675 1.16997 30 0.4196L9.11994 2.00822Z" fill="black"/>
</g>
<defs>
<clipPath id="clip0_4_74">
<rect width="30" height="30" fill="white"/>
</clipPath>
</defs>
</svg>
