<svg width="75" height="110" viewBox="0 0 75 110" fill="none" xmlns="http://www.w3.org/2000/svg">
<path d="M48.4114 0.198762C47.4201 0.441532 46.3276 1.2103 45.8016 2.01953C45.3363 2.70738 43.8393 7.92692 33.2181 46.1631L30.8713 54.5993L29.4349 53.3855C26.7442 51.1197 22.8397 49.5619 19.1577 49.2786C15.8803 49.0156 11.7735 49.9867 8.77931 51.7468C6.97877 52.7988 4.55108 55.0242 3.29677 56.8045C2.20431 58.3218 0.95 60.972 0.484692 62.7321C-0.263847 65.6858 -0.142462 69.7927 0.828615 72.7464C3.96439 82.2953 14.3225 87.4541 23.7906 84.197C28.6055 82.5381 32.7326 78.674 34.5533 74.1018C34.8973 73.2319 36.9406 66.1714 39.1053 58.3825C47.845 27.0046 49.5241 21.0162 49.6253 20.9151C49.686 20.8544 50.2322 21.2388 50.8391 21.785C52.761 23.4844 54.076 24.1722 58.5066 25.7907C60.8331 26.6606 62.8967 28.8051 63.7059 31.2732C64.1712 32.6692 64.1914 33.9437 63.807 37.4436C63.6857 38.4147 63.7463 38.6979 64.2521 39.669C65.0209 41.1863 66.1336 41.9349 67.752 42.0563C70.0584 42.2181 71.8589 41.0043 72.5063 38.8193C74.1854 33.1345 72.5063 26.3572 68.2983 21.9266C66.0122 19.5192 63.6452 18.0019 60.5701 17.0105C57.4343 15.999 55.6136 14.5424 54.42 12.1552C53.4489 10.1725 53.2466 8.57431 53.6714 6.22754C54.0558 4.1033 53.9546 3.23338 53.1252 2.01953C52.1946 0.643839 50.0096 -0.205854 48.4114 0.198762Z" fill="#A20A0A"/>
<path d="M50.4143 52.8393C50.0097 53.1023 49.6455 53.5878 49.423 54.1543L49.079 55.0444L50.2322 59.5559C50.8593 62.0241 52.7004 69.2667 54.3188 75.6394C55.9373 82.0121 57.313 87.3732 57.3737 87.5553C57.4748 87.8183 57.4344 87.8588 57.1107 87.7374C56.9084 87.6362 55.917 87.5149 54.9055 87.4744C47.7843 87.0698 42.1399 93.3413 43.3537 100.321C44.2843 105.581 48.4317 109.303 53.7928 109.607C60.2667 109.991 65.9717 104.286 65.466 97.9135C65.4053 97.1852 64.2521 92.2286 62.8967 86.8877C61.5412 81.567 59.6597 74.203 58.7291 70.521C57.7985 66.8592 57.0702 63.8448 57.0904 63.8246C57.1107 63.7841 57.5557 63.8651 58.0413 63.9662C58.6077 64.1078 59.6597 64.1281 60.7724 64.0269C64.1712 63.7437 65.7492 63.8044 66.6394 64.2494C67.833 64.8361 68.9052 66.05 69.3907 67.3852C69.8965 68.7609 70.3618 69.3476 71.3531 69.7522C72.6277 70.2782 74.0641 69.6915 74.7519 68.3361C75.2374 67.4459 75.0149 66.2118 74.0438 64.2494C72.5265 61.1744 69.6335 59.0299 66.0931 58.3218C64.6567 58.0386 64.2724 58.0386 62.6337 58.3016C61.6019 58.4634 60.3274 58.5848 59.7609 58.5646C57.6164 58.5241 55.5731 56.9866 54.7841 54.8219C54.1772 53.1832 53.3073 52.4144 52.0125 52.4144C51.4056 52.4144 50.8391 52.5763 50.4143 52.8393Z" fill="#A20A0A"/>
</svg>
