<svg width="19" height="19" viewBox="0 0 19 19" fill="none" xmlns="http://www.w3.org/2000/svg">
<path d="M18.7125 14.4156C18.5467 15.6816 17.9267 16.8443 16.9679 17.6876C16.0092 18.5308 14.7768 18.9972 13.5 19C6.05625 19 0 12.9438 0 5.50001C0.00281471 4.22319 0.469194 2.99083 1.31243 2.03206C2.15566 1.07329 3.31837 0.453355 4.58437 0.287507C4.90711 0.251724 5.23284 0.319672 5.51435 0.481498C5.79586 0.643324 6.01851 0.890614 6.15 1.18751L8.03437 5.58438C8.13212 5.81261 8.17131 6.06163 8.14839 6.30885C8.12547 6.55607 8.04116 6.79364 7.90312 7.00001L6.34687 9.38126C7.05158 10.8114 8.21273 11.966 9.64687 12.6625L12 11.0969C12.2061 10.9579 12.4443 10.8738 12.692 10.8525C12.9397 10.8312 13.1888 10.8733 13.4156 10.975L17.8125 12.85C18.1094 12.9815 18.3567 13.2041 18.5185 13.4857C18.6803 13.7672 18.7483 14.0929 18.7125 14.4156V14.4156Z" fill="black"/>
</svg>
