<svg width="110" height="87" viewBox="0 0 110 87" fill="none" xmlns="http://www.w3.org/2000/svg">
<path d="M73.3333 45.9089L100.329 45.9089C99.4774 51.5596 97.4518 56.9713 94.3819 61.7982C91.312 66.6251 87.2652 70.7612 82.5 73.9421L74.2958 79.421L79.3375 87L87.5417 81.5212C94.4475 76.9369 100.111 70.7254 104.028 63.4378C107.946 56.1502 109.997 48.0119 110 39.7452L110 9.38339C110 6.9616 109.034 4.63901 107.315 2.92654C105.596 1.21408 103.264 0.252025 100.833 0.252025H73.3333C70.9022 0.252025 68.5706 1.21408 66.8515 2.92654C65.1324 4.63901 64.1667 6.9616 64.1667 9.38339V36.7775C64.1667 39.1993 65.1324 41.5219 66.8515 43.2343C68.5706 44.9468 70.9022 45.9089 73.3333 45.9089ZM9.16666 45.9089L36.1625 45.9089C35.3107 51.5596 33.2851 56.9713 30.2152 61.7982C27.1453 66.6251 23.0985 70.7612 18.3333 73.9421L10.1292 79.421L15.125 87L23.375 81.5212C30.2808 76.9369 35.9438 70.7254 39.8616 63.4378C43.7793 56.1502 45.8305 48.0119 45.8333 39.7452L45.8333 9.38339C45.8333 6.9616 44.8676 4.63901 43.1485 2.92654C41.4294 1.21408 39.0978 0.252025 36.6667 0.252025H9.16666C6.73551 0.252025 4.40394 1.21408 2.68485 2.92654C0.965769 4.63901 -3.8147e-06 6.9616 -3.8147e-06 9.38339L-3.8147e-06 36.7775C-3.8147e-06 39.1993 0.965769 41.5219 2.68485 43.2343C4.40394 44.9468 6.73551 45.9089 9.16666 45.9089Z" fill="#3D463F" fill-opacity="0.5"/>
</svg>
