<svg width="40" height="56" viewBox="0 0 40 56" fill="none" xmlns="http://www.w3.org/2000/svg">
<mask id="mask0_702_11" style="mask-type:luminance" maskUnits="userSpaceOnUse" x="0" y="0" width="40" height="56">
<path d="M40 0H0V56H40V0Z" fill="white"/>
</mask>
<g mask="url(#mask0_702_11)">
<path d="M19.9756 55.8586L3.69845 51.372L0.071106 10.9775H39.9287L36.2976 51.3658L19.9756 55.8586Z" fill="#264DE4"/>
<path d="M33.189 48.794L36.2919 14.2803H19.9999V52.4243L33.189 48.794Z" fill="#2965F1"/>
<path d="M8.38677 29.2621L8.83392 34.2163H20V29.2621H8.38677ZM7.4881 19.2347L7.94165 24.189H20V19.2347H7.4881ZM20 42.1288L19.9781 42.1346L14.4211 40.6447L14.0658 36.6935H9.05687L9.75588 44.4723L19.9771 47.2895L20 47.2832V42.1288Z" fill="#EBEBEB"/>
<path d="M9.45135 0H15.4946V2.5093H11.9786V5.01859H15.4949V7.52773H9.45135V0ZM16.7035 0H22.7468V2.18198H19.2307V2.61835H22.7468V7.63694H16.7036V5.3456H20.2197V4.90923H16.7033L16.7035 0ZM23.9556 0H29.9991V2.18198H26.4828V2.61835H29.9991V7.63694H23.9556V5.3456H27.4718V4.90923H23.9557L23.9556 0Z" fill="white"/>
<path d="M31.5812 29.2621L32.482 19.2347H19.9826V24.189H27.0137L26.5597 29.2621H19.9826V34.2163H26.127L25.5477 40.6416L19.9825 42.133V47.2872L30.2118 44.4723L30.2869 43.6354L31.4596 30.5925L31.5812 29.2621Z" fill="white"/>
</g>
</svg>
