<svg width="40" height="56" viewBox="0 0 40 56" fill="none" xmlns="http://www.w3.org/2000/svg">
<mask id="mask0_702_2" style="mask-type:luminance" maskUnits="userSpaceOnUse" x="0" y="0" width="40" height="56">
<path d="M40 0H0V56H40V0Z" fill="white"/>
</mask>
<g mask="url(#mask0_702_2)">
<path d="M39.9288 10.9775L36.2977 51.3658L19.9757 55.8586L3.69858 51.372L0.071228 10.9775H39.9288Z" fill="#E44D26"/>
<path d="M20 52.4244L33.1891 48.7942L36.292 14.2804H20V52.4244Z" fill="#F16529"/>
<path d="M12.9413 24.189H20.0001V19.2347H7.48816L7.60754 20.5639L8.834 34.2163H20.0001V29.2621H13.3974L12.9413 24.189ZM14.0659 36.6935H9.05695L9.75594 44.4723L19.9771 47.2895L20.0001 47.2832V42.1288L19.9782 42.1346L14.4212 40.6447L14.0659 36.6935Z" fill="#EBEBEB"/>
<path d="M3.77954 0H6.31528V2.48742H8.63493V0H11.1708V7.53254H8.63507V5.01022H6.31542V7.53254H3.7797L3.77954 0ZM14.5052 2.49797H12.2732V0H19.2747V2.49797H17.0414V7.53254H14.5057L14.5052 2.49797ZM20.386 0H23.03L24.6564 2.64674L26.2813 0H28.9263V7.53254H26.401V3.79901L24.6564 6.47723H24.6126L22.867 3.79901V7.53254H20.386V0ZM30.1883 0H32.7247V5.0428H36.2908V7.53254H30.1881L30.1883 0Z" fill="white"/>
<path d="M19.9828 34.2163H26.1272L25.5479 40.6416L19.9827 42.133V47.2872L30.212 44.4723L30.2871 43.6354L31.4597 30.5925L31.5814 29.2621H19.9828V34.2163ZM19.9828 24.1768V24.189H32.0355L32.1354 23.0754L32.363 20.5639L32.4822 19.2347H19.9828V24.1768Z" fill="white"/>
</g>
</svg>
